HIERARCHY
ROOT Hips
{
	OFFSET -3.958830 18.904000 13.208200
	CHANNELS 6 Xposition Yposition Zposition Zrotation Yrotation Xrotation 
	JOINT LHipJoint
	{
		OFFSET 0.000000 0.000000 0.000000
		CHANNELS 3 Zrotation Yrotation Xrotation
		JOINT LeftUpLeg
		{
			OFFSET 1.800000 -1.400000 0.085000
			CHANNELS 3 Zrotation Yrotation Xrotation
			JOINT LeftLeg
			{
				OFFSET 2.215000 -6.000000 0.000000
				CHANNELS 3 Zrotation Yrotation Xrotation
				JOINT LeftFoot
				{
					OFFSET 2.500000 -6.900000 0.000000
					CHANNELS 3 Zrotation Yrotation Xrotation
					JOINT LeftToeBase
					{
						OFFSET 0.200000 -0.500000 1.950000
						CHANNELS 3 Zrotation Yrotation Xrotation
						End Site
						{
							OFFSET 0.000000 0.000000 0.000000
						}
					}
				}
			}
		}
	}
	JOINT RHipJoint
	{
		OFFSET 0.000000 0.000000 0.000000
		CHANNELS 3 Zrotation Yrotation Xrotation
		JOINT RightUpLeg
		{
			OFFSET -1.800000 -1.400000 0.085000
			CHANNELS 3 Zrotation Yrotation Xrotation
			JOINT RightLeg
			{
				OFFSET -2.215000 -6.000000 0.000000
				CHANNELS 3 Zrotation Yrotation Xrotation
				JOINT RightFoot
				{
					OFFSET -2.500000 -6.900000 0.000000
					CHANNELS 3 Zrotation Yrotation Xrotation
					JOINT RightToeBase
					{
						OFFSET -0.200000 -0.500000 1.950000
						CHANNELS 3 Zrotation Yrotation Xrotation
						End Site
						{
							OFFSET 0.000000 0.000000 0.000000
						}
					}
				}
			}
		}
	}
	JOINT LowerBack
	{
		OFFSET 0.000000 0.000000 0.000000
		CHANNELS 3 Zrotation Yrotation Xrotation
		JOINT Spine
		{
			OFFSET -0.087000 1.940000 -0.288900
			CHANNELS 3 Zrotation Yrotation Xrotation
			JOINT Spine1
			{
				OFFSET 0.000000 1.950000 0.060000
				CHANNELS 3 Zrotation Yrotation Xrotation
				JOINT Neck
				{
					OFFSET 0.000000 0.000000 0.000000
					CHANNELS 3 Zrotation Yrotation Xrotation
					JOINT Neck1
					{
						OFFSET 0.000000 1.600000 0.340000
						CHANNELS 3 Zrotation Yrotation Xrotation
						JOINT Head
						{
							OFFSET 0.000000 1.667000 -0.240000
							CHANNELS 3 Zrotation Yrotation Xrotation
							End Site
							{
								OFFSET 0.000000 0.000000 0.000000
							}
						}
					}
				}
				JOINT LeftShoulder
				{
					OFFSET 0.000000 0.000000 0.000000
					CHANNELS 3 Zrotation Yrotation Xrotation
					JOINT LeftArm
					{
						OFFSET 2.700000 1.550000 -0.730000
						CHANNELS 3 Zrotation Yrotation Xrotation
						JOINT LeftForeArm
						{
							OFFSET 5.450000 0.000000 0.000000
							CHANNELS 3 Zrotation Yrotation Xrotation
							JOINT LeftHand
							{
								OFFSET 3.450000 0.000000 0.000000
								CHANNELS 3 Zrotation Yrotation Xrotation
								JOINT LeftHandIndex1
								{
									OFFSET 0.750000 0.000000 0.000000
									CHANNELS 3 Zrotation Yrotation Xrotation
									End Site
									{
										OFFSET 0.000000 0.000000 0.000000
									}
								}
							}
						}
					}
				}
				JOINT RightShoulder
				{
					OFFSET 0.000000 0.000000 0.000000
					CHANNELS 3 Zrotation Yrotation Xrotation
					JOINT RightArm
					{
						OFFSET -2.700000 1.550000 -0.730000
						CHANNELS 3 Zrotation Yrotation Xrotation
						JOINT RightForeArm
						{
							OFFSET -5.450000 0.000000 0.000000
							CHANNELS 3 Zrotation Yrotation Xrotation
							JOINT RightHand
							{
								OFFSET -3.450000 0.000000 0.000000
								CHANNELS 3 Zrotation Yrotation Xrotation
								JOINT RightHandIndex1
								{
									OFFSET -0.750000 0.000000 0.000000
									CHANNELS 3 Zrotation Yrotation Xrotation
									End Site
									{
										OFFSET 0.000000 0.000000 0.000000
									}
								}
							}
						}
					}
				}
			}
		}
	}
}
MOTION
Frames: 4
Frame Time: 0.016667
-0.036190 17.621110 -1.431140 -3.270671 -4.370814 -28.563104 -14.852072 13.000666 3.003141 7.416798 2.656494 18.151750 -6.726084 8.090716 12.337296 0.325263 6.414178 2.341983 0.566100 0.292110 0.583250 18.616044 -11.249366 2.725408 -8.320221 -2.256395 15.080986 9.240334 -9.503177 20.606320 -1.187181 -6.394450 2.076205 0.129240 -0.109280 0.232660 -4.500570 -0.891878 -7.206361 19.150153 -0.192908 16.313266 -8.636040 -0.442466 32.677204 4.777924 -5.592454 -17.427924 -19.029406 8.985332 56.215611 3.136490 -1.076610 -16.659050 -12.833149 -31.284237 12.480817 -12.395354 -12.242621 -13.300221 128.449603 -2.895112 -36.765673 -3.625689 3.125472 0.656020 -0.252180 0.315300 0.033120 5.244514 34.173428 13.657362 18.940613 8.839019 -21.384706 -133.097714 -4.591103 -28.055503 2.257507 -2.384150 -0.019190 0.175960 -0.056110 -0.168640 
-0.036550 17.615310 -1.382210 -3.379660 -4.466743 -28.776078 -14.794116 12.901623 2.946817 7.439068 2.592255 18.396353 -6.628952 8.226629 13.275677 0.351249 6.451330 2.319406 0.595190 0.319880 0.611360 18.685806 -11.310474 2.750807 -8.250410 -2.482913 16.080407 8.819498 -9.426593 20.143997 -1.240088 -6.423275 2.064367 0.124300 -0.138020 0.249340 -4.684112 -0.630752 -7.123379 20.052673 -0.056242 15.130180 -9.159856 -0.469666 33.485572 5.033422 -5.665608 -18.032695 -19.807829 9.358518 58.017420 3.209530 -1.387160 -17.402370 -13.981891 -32.284753 12.690764 -11.716661 -11.682292 -13.516103 128.525344 -3.356411 -37.355368 -3.607378 3.119121 0.678210 -0.280100 0.356780 0.038800 6.166126 35.050252 14.436637 18.666356 7.525164 -21.624456 -133.458520 -3.875714 -30.763441 2.272696 -2.352142 0.009330 0.169320 -0.076030 -0.162340 
-0.029980 17.606300 -1.332180 -4.213608 -4.688872 -28.463189 -14.643589 12.675175 2.809597 8.227862 2.283390 18.068309 -7.040302 8.476949 14.112205 0.358524 6.486642 2.306630 0.578490 0.309340 0.595140 18.861790 -11.469851 2.803768 -7.411745 -2.936032 16.688097 8.005626 -9.144148 19.356561 -1.256956 -6.404530 2.082880 0.108880 -0.123710 0.239860 -5.149319 0.008659 -6.963669 22.548626 -0.278834 13.316640 -10.296858 -0.851094 34.016361 4.882913 -6.024061 -18.370857 -20.665226 9.691797 58.819646 4.079630 -1.853160 -16.949340 -14.351456 -32.640673 12.937389 -11.769189 -11.078780 -13.539856 128.252805 -4.173270 -38.336126 -3.606956 3.090464 0.671210 -0.282820 0.352870 0.035060 7.145779 35.202483 14.921619 18.860135 7.013742 -21.444975 -133.375182 -2.552661 -33.593954 2.286470 -2.287787 0.012790 0.178860 -0.069410 -0.147110 
-0.012440 17.606530 -1.292660 -4.262811 -4.617745 -28.266952 -14.578938 12.578864 2.765886 8.168743 2.165646 17.913381 -7.266243 8.641903 14.862363 0.340699 6.511899 2.282268 0.588980 0.315280 0.614130 18.934724 -11.546519 2.813137 -7.563104 -3.172859 17.184624 7.466305 -8.971210 18.611578 -1.278250 -6.367100 2.094177 0.109640 -0.150140 0.225890 -5.346234 0.267569 -6.900977 23.377137 -0.486506 12.616930 -11.118862 -0.884803 33.957652 4.863251 -6.164253 -18.599251 -21.328270 10.278953 60.233132 4.700030 -1.849300 -17.921080 -15.553103 -32.632421 12.957671 -11.422707 -9.915925 -13.425123 127.895787 -5.946402 -40.460786 -3.586561 3.035485 0.710520 -0.314030 0.374070 0.024040 8.503473 35.141180 15.243809 19.015823 6.068599 -21.435239 -132.839277 -0.894016 -36.292740 2.290694 -2.207138 0.005280 0.189460 -0.071680 -0.161040 
